# xmcd
#
# Track frame offsets: 
#        150
#        12288
#        25887
#        37327
#        50621
#        61993
#        73203
#        83900
#        94482
#        104794
#        114264
#        124035
#        135553
#        147156
#        156704
#        167852
#        177607
#        186793
#        198635
#        210390
#        222248
#        235281
#        246909
#        259682
#        270296
#        281818
#        294323
#        305078
#        314902
#
# Disc length: 4352 seconds
#
# Revision: 0
# Processed by: cddbd v1.5.2PL0 Copyright (c) Steve Scherf et al.
# Submitted via: ExactAudioCopy v1.0b1
#
DISCID=d310fe1d
DTITLE=Pee Wee Crayton - Pee Wee Crayton Collection 1947-62 [CD2]
DYEAR=2017
DGENRE=Blues
TTITLE0=Daybreak (1952)
TTITLE1=When It Rains It Pours (1952)
TTITLE2=Pappy's Blues (1953)
TTITLE3=Crying And Walking (1953)
TTITLE4=Baby, Pat The Floor (1953)
TTITLE5=Steppin' Out (1953)
TTITLE6=Do Unto Others (1954)
TTITLE7=Every Dog Has A Day (1954)
TTITLE8=Wine-O (1954)
TTITLE9=Hurry Hurry (1954)
TTITLE10=I Need Your Love (1955)
TTITLE11=You Know - Yeah (1955)
TTITLE12=My Idea About You (1955)
TTITLE13=Eyes Full Of Tears (1955)
TTITLE14=Runnin' Wild (1955)
TTITLE15=Yours Truly (1955)
TTITLE16=Be Faithful (1955)
TTITLE17=Don't Go (1955)
TTITLE18=I Must Go On (1955)
TTITLE19=Frosty Night (1956)
TTITLE20=Telephone Is Ringing (1956)
TTITLE21=I Found My Peace Of Mind (1957)
TTITLE22=Fiddle Dee Dee (1957)
TTITLE23=Is This The Price I Pay (1957)
TTITLE24=Look Up And Live (1959)
TTITLE25=Pee Wee's Boogie (1960)
TTITLE26='Tain't Nobody's Business If I Do (1961)
TTITLE27=Time On My Hands (1961)
TTITLE28=Hillbilly Blues (1962)
EXTD=
EXTT0=
EXTT1=
EXTT2=
EXTT3=
EXTT4=
EXTT5=
EXTT6=
EXTT7=
EXTT8=
EXTT9=
EXTT10=
EXTT11=
EXTT12=
EXTT13=
EXTT14=
EXTT15=
EXTT16=
EXTT17=
EXTT18=
EXTT19=
EXTT20=
EXTT21=
EXTT22=
EXTT23=
EXTT24=
EXTT25=
EXTT26=
EXTT27=
EXTT28=
PLAYORDER=
